<svg width="30" height="30" viewBox="0 0 30 30" fill="none" xmlns="http://www.w3.org/2000/svg">
<g clip-path="url(#clip0)">
<path d="M10.2273 0H8.86366C8.48679 0 8.18182 0.304965 8.18182 0.68184V8.18182H0.68184C0.304965 8.18182 0 8.48679 0 8.86366V10.2273C0 10.6042 0.304965 10.9091 0.68184 10.9091H10.2273C10.6042 10.9091 10.9091 10.6042 10.9091 10.2273V0.68184C10.9091 0.304965 10.6042 0 10.2273 0Z" fill="#4E4E4E"/>
<path d="M29.3182 8.18182H21.8182V0.68184C21.8182 0.304965 21.5133 0 21.1364 0H19.7728C19.3959 0 19.0909 0.304965 19.0909 0.68184V10.2273C19.0909 10.6042 19.3959 10.9091 19.7728 10.9091H29.3182C29.6951 10.9091 30.0001 10.6042 30.0001 10.2273V8.86366C30 8.48679 29.6951 8.18182 29.3182 8.18182Z" fill="#4E4E4E"/>
<path d="M29.3181 19.0909H19.7727C19.3958 19.0909 19.0908 19.3959 19.0908 19.7728V29.3182C19.0908 29.6951 19.3958 30.0001 19.7727 30.0001H21.1363C21.5131 30.0001 21.8181 29.6951 21.8181 29.3182V21.8182H29.3181C29.6949 21.8182 29.9999 21.5132 29.9999 21.1363V19.7727C29.9999 19.3958 29.695 19.0909 29.3181 19.0909Z" fill="#4E4E4E"/>
<path d="M10.2273 19.0909H0.68184C0.304965 19.0909 0 19.3958 0 19.7727V21.1363C0 21.5132 0.304965 21.8182 0.68184 21.8182H8.18182V29.3182C8.18182 29.695 8.48679 30 8.86366 30H10.2273C10.6042 30 10.9091 29.695 10.9091 29.3182V19.7727C10.9091 19.3958 10.6042 19.0909 10.2273 19.0909Z" fill="#4E4E4E"/>
</g>
<defs>
<clipPath id="clip0">
<rect width="30" height="30" fill="white"/>
</clipPath>
</defs>
</svg>
