<svg width="40" height="40" viewBox="0 0 40 40" fill="none" xmlns="http://www.w3.org/2000/svg">
<path d="M11.8182 20C11.8182 18.9959 11.0042 18.1818 10 18.1818H2.7273C1.72318 18.1818 0.909119 18.9959 0.909119 20C0.909119 21.0041 1.72318 21.8182 2.7273 21.8182H10C11.0042 21.8182 11.8182 21.0041 11.8182 20Z" fill="#4E4E4E"/>
<path d="M37.2728 18.1818H33.6364C32.6323 18.1818 31.8182 18.9959 31.8182 20C31.8182 21.0041 32.6323 21.8182 33.6364 21.8182H37.2728C38.2769 21.8182 39.091 21.0041 39.091 20C39.091 18.9959 38.2769 18.1818 37.2728 18.1818Z" fill="#4E4E4E"/>
<path d="M20.9091 10.9091C21.9132 10.9091 22.7273 10.095 22.7273 9.09091V1.81818C22.7273 0.814061 21.9132 0 20.9091 0C19.905 0 19.0909 0.814061 19.0909 1.81818V9.09091C19.0909 10.095 19.905 10.9091 20.9091 10.9091Z" fill="#4E4E4E"/>
<path d="M20.9092 29.0909C19.9051 29.0909 19.0911 29.9049 19.0911 30.9091V38.1818C19.0911 39.1859 19.9051 40 20.9092 40C21.9134 40 22.7274 39.1859 22.7274 38.1818V30.9091C22.7274 29.9049 21.9134 29.0909 20.9092 29.0909Z" fill="#4E4E4E"/>
<path d="M9.33819 5.85782C8.62838 5.14776 7.4771 5.14788 6.76692 5.85782C6.05686 6.56788 6.05686 7.71903 6.76692 8.42909L11.9096 13.5719C12.2646 13.9269 12.73 14.1045 13.1952 14.1045C13.6604 14.1045 14.1258 13.9269 14.4807 13.572C15.1908 12.8619 15.1908 11.7108 14.4807 11.0007L9.33819 5.85782Z" fill="#4E4E4E"/>
<path d="M29.9086 26.4284C29.1987 25.7184 28.0474 25.7184 27.3374 26.4284C26.6273 27.1385 26.6274 28.2896 27.3374 28.9997L32.4802 34.1422C32.8352 34.4973 33.3005 34.6747 33.7659 34.6747C34.2312 34.6747 34.6965 34.4971 35.0514 34.1422C35.7615 33.4322 35.7615 32.281 35.0514 31.5709L29.9086 26.4284Z" fill="#4E4E4E"/>
<path d="M11.9096 26.4284L6.76704 31.5709C6.05698 32.281 6.05698 33.4321 6.76704 34.1422C7.12207 34.4972 7.5874 34.6747 8.05274 34.6747C8.51807 34.6747 8.9834 34.4972 9.33831 34.1422L14.4809 28.9996C15.1909 28.2896 15.1909 27.1384 14.4809 26.4284C13.7708 25.7183 12.6195 25.7183 11.9096 26.4284Z" fill="#4E4E4E"/>
</svg>
