<svg width="40" height="40" viewBox="0 0 40 40" fill="none" xmlns="http://www.w3.org/2000/svg">
<path d="M21.7786 3.65352C18.575 3.64891 15.4413 4.58965 12.77 6.35789C12.3552 6.63226 12.0665 7.06015 11.9672 7.54743C11.8679 8.03471 11.9663 8.54146 12.2407 8.95622C12.515 9.37097 12.9429 9.65974 13.4302 9.75901C13.9175 9.85828 14.4242 9.75992 14.839 9.48555C16.8969 8.12378 19.3109 7.39953 21.7786 7.40352C28.7243 7.40352 34.375 13.0547 34.375 20C34.375 26.9453 28.7242 32.5965 21.7785 32.5965C14.8328 32.5965 9.18203 26.9457 9.18203 20C9.182 19.571 9.20351 19.1423 9.24648 18.7154L10.1317 19.9797C10.4169 20.387 10.8523 20.6644 11.342 20.7508C11.8318 20.8371 12.3357 20.7254 12.7431 20.4402C13.1504 20.155 13.4278 19.7196 13.5142 19.2299C13.6005 18.7402 13.4888 18.2362 13.2036 17.8288L9.94289 13.1719C9.80166 12.9702 9.62208 12.7983 9.41441 12.666C9.20674 12.5337 8.97505 12.4436 8.73256 12.4008C8.49006 12.358 8.24152 12.3635 8.00113 12.4168C7.76073 12.47 7.53318 12.5702 7.33148 12.7114L2.67461 15.9723C2.26809 16.2578 1.99152 16.6931 1.90563 17.1824C1.81973 17.6717 1.93154 18.1751 2.21649 18.582C2.50144 18.989 2.93625 19.2662 3.42543 19.3528C3.91461 19.4395 4.41817 19.3284 4.82555 19.0441L5.49414 18.5759C5.45359 19.0473 5.43164 19.522 5.43164 20C5.43164 29.0135 12.7647 36.3465 21.7782 36.3465C30.7917 36.3465 38.125 29.0135 38.125 20C38.125 10.9865 30.7921 3.65352 21.7786 3.65352Z" fill="#4E4E4E"/>
</svg>
