<svg width="40" height="40" viewBox="0 0 40 40" fill="none" xmlns="http://www.w3.org/2000/svg">
<path d="M18.6741 30.0758C18.8483 30.2499 19.055 30.388 19.2824 30.4823C19.5099 30.5765 19.7538 30.625 20 30.625C20.2462 30.625 20.4901 30.5765 20.7176 30.4823C20.945 30.388 21.1517 30.2499 21.3259 30.0758L28.3969 23.0048C28.7485 22.6531 28.946 22.1762 28.946 21.6789C28.946 21.1817 28.7485 20.7048 28.3969 20.3531C28.0452 20.0015 27.5683 19.804 27.0711 19.804C26.5738 19.804 26.0969 20.0015 25.7452 20.3531L21.875 24.2234V3.75C21.875 3.25272 21.6775 2.77581 21.3258 2.42417C20.9742 2.07254 20.4973 1.875 20 1.875C19.5027 1.875 19.0258 2.07254 18.6742 2.42417C18.3225 2.77581 18.125 3.25272 18.125 3.75V24.2234L14.2548 20.3531C13.9031 20.0015 13.4262 19.804 12.9289 19.804C12.4317 19.804 11.9548 20.0015 11.6031 20.3531C11.2515 20.7048 11.054 21.1817 11.054 21.6789C11.054 22.1762 11.2515 22.6531 11.6031 23.0048L18.6741 30.0758Z" fill="#4E4E4E"/>
<path d="M36.25 18.125C35.7527 18.125 35.2758 18.3225 34.9242 18.6742C34.5725 19.0258 34.375 19.5027 34.375 20V34.375H5.625V20C5.625 19.5027 5.42746 19.0258 5.07583 18.6742C4.72419 18.3225 4.24728 18.125 3.75 18.125C3.25272 18.125 2.77581 18.3225 2.42417 18.6742C2.07254 19.0258 1.875 19.5027 1.875 20V35C1.875 35.8288 2.20424 36.6237 2.79029 37.2097C3.37634 37.7958 4.1712 38.125 5 38.125H35C35.8288 38.125 36.6237 37.7958 37.2097 37.2097C37.7958 36.6237 38.125 35.8288 38.125 35V20C38.125 19.5027 37.9275 19.0258 37.5758 18.6742C37.2242 18.3225 36.7473 18.125 36.25 18.125Z" fill="#4E4E4E"/>
</svg>
